<svg width="1200" height="675" viewBox="0 0 1200 675" xmlns="http://www.w3.org/2000/svg">
  <!-- Background -->
  <rect width="1200" height="675" fill="#1a1a1a"/>
  
  <!-- Header Bar -->
  <rect width="1200" height="60" fill="#2a2a2a"/>
  <circle cx="20" cy="30" r="6" fill="#ff5f56"/>
  <circle cx="40" cy="30" r="6" fill="#ffbd2e"/>
  <circle cx="60" cy="30" r="6" fill="#27c93f"/>
  
  <!-- Logo/Title Area -->
  <text x="100" y="40" font-family="Inter, sans-serif" font-size="20" font-weight="bold" fill="#F26B3A">MattinAI Core Tools</text>
  
  <!-- Sidebar -->
  <rect x="0" y="60" width="240" height="615" fill="#252525"/>
  
  <!-- Sidebar Items -->
  <rect x="20" y="90" width="200" height="40" rx="6" fill="#F26B3A" opacity="0.9"/>
  <text x="40" y="116" font-family="Inter, sans-serif" font-size="14" font-weight="600" fill="white">Dashboard</text>
  
  <rect x="20" y="145" width="200" height="40" rx="6" fill="#333333"/>
  <text x="40" y="171" font-family="Inter, sans-serif" font-size="14" fill="#999999">LLM Models</text>
  
  <rect x="20" y="200" width="200" height="40" rx="6" fill="#333333"/>
  <text x="40" y="226" font-family="Inter, sans-serif" font-size="14" fill="#999999">RAG Systems</text>
  
  <rect x="20" y="255" width="200" height="40" rx="6" fill="#333333"/>
  <text x="40" y="281" font-family="Inter, sans-serif" font-size="14" fill="#999999">Vector DB</text>
  
  <rect x="20" y="310" width="200" height="40" rx="6" fill="#333333"/>
  <text x="40" y="336" font-family="Inter, sans-serif" font-size="14" fill="#999999">AI Agents</text>
  
  <rect x="20" y="365" width="200" height="40" rx="6" fill="#333333"/>
  <text x="40" y="391" font-family="Inter, sans-serif" font-size="14" fill="#999999">Settings</text>
  
  <!-- Main Content Area -->
  <rect x="240" y="60" width="960" height="615" fill="#1e1e1e"/>
  
  <!-- Stats Cards -->
  <rect x="280" y="100" width="260" height="120" rx="8" fill="#2a2a2a"/>
  <text x="300" y="130" font-family="Inter, sans-serif" font-size="14" fill="#999999">Active Models</text>
  <text x="300" y="175" font-family="Inter, sans-serif" font-size="36" font-weight="bold" fill="#F26B3A">8</text>
  
  <rect x="560" y="100" width="260" height="120" rx="8" fill="#2a2a2a"/>
  <text x="580" y="130" font-family="Inter, sans-serif" font-size="14" fill="#999999">API Requests</text>
  <text x="580" y="175" font-family="Inter, sans-serif" font-size="36" font-weight="bold" fill="#27c93f">1.2k</text>
  
  <rect x="840" y="100" width="260" height="120" rx="8" fill="#2a2a2a"/>
  <text x="860" y="130" font-family="Inter, sans-serif" font-size="14" fill="#999999">Vectors Stored</text>
  <text x="860" y="175" font-family="Inter, sans-serif" font-size="36" font-weight="bold" fill="#ffbd2e">45.8k</text>
  
  <!-- Recent Activity Section -->
  <text x="280" y="270" font-family="Inter, sans-serif" font-size="18" font-weight="600" fill="white">Recent Activity</text>
  
  <rect x="280" y="290" width="820" height="60" rx="6" fill="#2a2a2a"/>
  <circle cx="310" cy="320" r="16" fill="#F26B3A" opacity="0.2"/>
  <text x="340" y="315" font-family="Inter, sans-serif" font-size="14" font-weight="500" fill="white">GPT-4 Query Processed</text>
  <text x="340" y="333" font-family="Inter, sans-serif" font-size="12" fill="#999999">2 minutes ago</text>
  
  <rect x="280" y="365" width="820" height="60" rx="6" fill="#2a2a2a"/>
  <circle cx="310" cy="395" r="16" fill="#27c93f" opacity="0.2"/>
  <text x="340" y="390" font-family="Inter, sans-serif" font-size="14" font-weight="500" fill="white">Vector Database Updated</text>
  <text x="340" y="408" font-family="Inter, sans-serif" font-size="12" fill="#999999">15 minutes ago</text>
  
  <rect x="280" y="440" width="820" height="60" rx="6" fill="#2a2a2a"/>
  <circle cx="310" cy="470" r="16" fill="#ffbd2e" opacity="0.2"/>
  <text x="340" y="465" font-family="Inter, sans-serif" font-size="14" font-weight="500" fill="white">RAG System Query Completed</text>
  <text x="340" y="483" font-family="Inter, sans-serif" font-size="12" fill="#999999">32 minutes ago</text>
  
  <rect x="280" y="515" width="820" height="60" rx="6" fill="#2a2a2a"/>
  <circle cx="310" cy="545" r="16" fill="#ff5f56" opacity="0.2"/>
  <text x="340" y="540" font-family="Inter, sans-serif" font-size="14" font-weight="500" fill="white">AI Agent Task Completed</text>
  <text x="340" y="558" font-family="Inter, sans-serif" font-size="12" fill="#999999">1 hour ago</text>
  
  <!-- Decorative elements -->
  <circle cx="1150" cy="110" r="3" fill="#F26B3A" opacity="0.6"/>
  <circle cx="1170" cy="130" r="2" fill="#27c93f" opacity="0.6"/>
  <circle cx="1160" cy="150" r="2.5" fill="#ffbd2e" opacity="0.6"/>
</svg>
