<?xml version="1.0" encoding="UTF-8"?>
<svg id="Capa_2" data-name="Capa 2" xmlns="http://www.w3.org/2000/svg" viewBox="65 0 235 165">
  <defs>
    <style>
      .cls-1 {
        fill: #eb5b29;
        stroke-width: 0px;
      }
    </style>
  </defs>
  <g id="mattin-ai-logo">
    <g>
      <path class="cls-1" d="m180.22,121.81l-13.27,20.8c-.64,1-.5,2.37.43,3.11,1.07.84,2.61.57,3.32-.56l12.21-19.14,12.15,19.03c.64,1,1.94,1.45,3,.92,1.22-.62,1.61-2.13.89-3.25l-13.35-20.92,1.71-2.67c3.85-3.93,18.12-17.35,41.07-26.25l27.93,53.83c.91,1.53,4.04,1.65,5.5.24.8-.75,1.11-1.45,1.48-2.59v-59.38c3.73-.28,7.57-.43,11.54-.36.46,0,.85-.36.86-.82l.07-2.8c.01-.47-.37-.87-.84-.87-3.99-.07-7.86.07-11.62.35V2.94c0-1.25-1.04-2.03-2.27-2.27,0,0-3.04-.64-4.15,1.04l-38.97,61.06s-.02,0-.04,0L186.25,1.83c-1.29-2.39-5.07-2.49-6.66,0l-31.62,60.94s-.02,0-.04,0L108.96,1.72c-1.1-1.68-4.15-1.04-4.15-1.04-1.23.24-2.27,1.02-2.27,2.27v77.54c-3.87-.3-7.86-.44-11.98-.37-.47,0-.85.4-.84.87l.07,2.81c.01.46.4.83.86.82,4.09-.07,8.05.08,11.89.38v59.57c.75,4.7,5.94,4.23,8.09,0l26.76-51.57c23.95,9.37,37.86,23.08,40.77,26.14M257.97,8.41c.23-.35.78-.19.78.23v72.24c-10.36,1.14-19.78,3.45-28.16,6.4l-10.29-19.83,37.68-59.04Zm-150.89.23c0-.42.55-.58.78-.23l37.68,59.04-10.34,19.93c-8.37-2.97-17.77-5.31-28.11-6.47V8.65Zm.79,131.4c-.2.39-.79.25-.79-.19v-54.42c9.54,1.11,18.25,3.24,26.03,5.96l-25.24,48.65Zm31.6-51.05l8.87-17.09s.02,0,.04,0l22.06,34.57c-7.28-5.55-17.7-12.23-30.97-17.48Zm43.2-13.55c-2.25,0-5.06-.87-6.87-1.48v32.48l-20.95-32.83,26.61-51.77c.78-1.45,2.63-1.46,3.38,0l26.17,51.77-20.98,32.83v-32.48c-1.72.63-4.86,1.48-7.35,1.48Zm13.05,30.51l21.74-34.06s.02,0,.04,0l8.81,16.98c-12.99,5.11-23.29,11.59-30.58,17.08Zm63.03,33.89c0,.44-.59.58-.79.19l-25.29-48.74c7.8-2.7,16.52-4.82,26.08-5.9v54.45Z"/>
      <circle class="cls-1" cx="78.88" cy="82.35" r="7.38"/>
      <circle class="cls-1" cx="286.6" cy="82.35" r="7.38"/>
      <circle class="cls-1" cx="183.17" cy="62.5" r="7.62" transform="translate(-7.65 30.15) rotate(-9.22)"/>
      <circle class="cls-1" cx="163.38" cy="154.78" r="7.38"/>
      <circle class="cls-1" cx="203.38" cy="154.78" r="7.38"/>
    </g>
  </g>
</svg>